<?xml version="1.0" encoding="UTF-8"?>
<svg width="512" height="512" viewBox="0 0 24 24" fill="none" xmlns="http://www.w3.org/2000/svg">
  <path d="M12 2C6.48 2 2 6.48 2 12C2 17.52 6.48 22 12 22C17.52 22 22 17.52 22 12C22 6.48 17.52 2 12 2ZM12 20C7.58 20 4 16.42 4 12C4 7.58 7.58 4 12 4C16.42 4 20 7.58 20 12C20 16.42 16.42 20 12 20Z" fill="#1DA1F2"/>
  <path d="M12 7C9.24 7 7 9.24 7 12C7 13.38 7.5 14.63 8.33 15.54C8.84 14.24 10.02 13.33 11.4 13.33C12.78 13.33 13.96 14.24 14.47 15.54C15.3 14.63 15.8 13.38 15.8 12C15.8 9.24 13.56 7 12 7Z" fill="#1DA1F2"/>
  <path d="M12 16.2C11.02 16.2 10.2 15.38 10.2 14.4C10.2 13.42 11.02 12.6 12 12.6C12.98 12.6 13.8 13.42 13.8 14.4C13.8 15.38 12.98 16.2 12 16.2Z" fill="#1DA1F2"/>
  <path d="M12 8.6C13.32 8.6 14.4 9.68 14.4 11C14.4 11.66 14.12 12.26 13.67 12.67C13.26 13.12 12.66 13.4 12 13.4C11.34 13.4 10.74 13.12 10.33 12.67C9.88 12.26 9.6 11.66 9.6 11C9.6 9.68 10.68 8.6 12 8.6Z" fill="#1DA1F2"/>
</svg>
